<svg width="37" height="20" viewBox="0 0 37 20" fill="none" xmlns="http://www.w3.org/2000/svg">
<path d="M12.3548 5.758L15.9687 9.924L15.9808 9.912L18.5 12.816L18.5104 12.828L22.192 17.072C23.4053 18.4703 24.951 19.4224 26.6337 19.808C28.3164 20.1937 30.0605 19.9955 31.6454 19.2385C33.2304 18.4816 34.5851 17.1999 35.5382 15.5554C36.4913 13.911 37 11.9777 37 10C37 8.0223 36.4913 6.08901 35.5382 4.44457C34.5851 2.80014 33.2304 1.51841 31.6454 0.761461C30.0605 0.00450703 28.3164 -0.193679 26.6337 0.191959C24.951 0.577597 23.4053 1.52974 22.192 2.928L20.9532 4.356L23.4082 7.184L24.6452 5.758C25.3731 4.91871 26.3005 4.34708 27.3102 4.11542C28.3199 3.88377 29.3665 4.00248 30.3177 4.45655C31.2688 4.91062 32.0818 5.67966 32.6538 6.66639C33.2258 7.65312 33.5311 8.81324 33.5311 10C33.5311 11.1868 33.2258 12.3469 32.6538 13.3336C32.0818 14.3203 31.2688 15.0894 30.3177 15.5435C29.3665 15.9975 28.3199 16.1162 27.3102 15.8846C26.3005 15.6529 25.3731 15.0813 24.6452 14.242L21.0504 10.098L21.0382 10.11L14.8097 2.93C13.5967 1.53118 12.051 0.57847 10.3681 0.192373C8.68532 -0.193724 6.94097 0.00413255 5.3557 0.76092C3.77044 1.51771 2.41547 2.79943 1.46215 4.44399C0.508834 6.08854 0 8.02206 0 10C0 11.9779 0.508834 13.9115 1.46215 15.556C2.41547 17.2006 3.77044 18.4823 5.3557 19.2391C6.94097 19.9959 8.68532 20.1937 10.3681 19.8076C12.051 19.4215 13.5967 18.4688 14.8097 17.07L16.0468 15.644L13.5935 12.816L12.3548 14.242C11.6269 15.0813 10.6995 15.6529 9.68981 15.8846C8.68012 16.1162 7.63351 15.9975 6.68235 15.5435C5.73119 15.0894 4.91821 14.3203 4.34622 13.3336C3.77423 12.3469 3.46893 11.1868 3.46893 10C3.46893 8.81324 3.77423 7.65312 4.34622 6.66639C4.91821 5.67966 5.73119 4.91062 6.68235 4.45655C7.63351 4.00248 8.68012 3.88377 9.68981 4.11542C10.6995 4.34708 11.6269 4.91871 12.3548 5.758Z" fill="white"/>
</svg>
