<svg width="16" height="16" viewBox="0 0 16 16" fill="none" xmlns="http://www.w3.org/2000/svg">
<path d="M8.80047 7.29454V1.01981C8.80047 0.820113 8.72114 0.628593 8.57993 0.487384C8.43872 0.346176 8.2472 0.266846 8.0475 0.266846C7.84781 0.266846 7.65629 0.346176 7.51508 0.487384C7.37387 0.628593 7.29454 0.820113 7.29454 1.01981V7.29454H1.01981C0.820113 7.29454 0.628593 7.37387 0.487385 7.51508C0.346176 7.65628 0.266846 7.8478 0.266846 8.0475C0.266846 8.2472 0.346176 8.43872 0.487385 8.57993C0.628593 8.72114 0.820113 8.80047 1.01981 8.80047H7.29454V15.0752C7.29714 15.2741 7.3773 15.4641 7.51795 15.6047C7.6586 15.7454 7.84861 15.8256 8.0475 15.8282C8.2472 15.8282 8.43872 15.7488 8.57993 15.6076C8.72114 15.4664 8.80047 15.2749 8.80047 15.0752V8.80047H15.0752C15.2749 8.80047 15.4664 8.72114 15.6076 8.57993C15.7488 8.43872 15.8282 8.2472 15.8282 8.0475C15.8256 7.84861 15.7454 7.6586 15.6047 7.51795C15.4641 7.3773 15.2741 7.29714 15.0752 7.29454H8.80047Z" fill="#5877F0"/>
</svg>
